<?xml version="1.0" encoding="UTF-8" standalone="no"?>
<!DOCTYPE svg PUBLIC "-//W3C//DTD SVG 1.1//EN" "http://www.w3.org/Graphics/SVG/1.1/DTD/svg11.dtd">
<svg width="100%" height="100%" viewBox="0 0 500 500" version="1.1" xmlns="http://www.w3.org/2000/svg" xmlns:xlink="http://www.w3.org/1999/xlink" xml:space="preserve" xmlns:serif="http://www.serif.com/" style="fill-rule:evenodd;clip-rule:evenodd;">
    <g id="All">
        <g id="Behind-Lines" serif:id="Behind Lines">
            <g transform="matrix(21.1381,0,0,21.1381,250,250)">
                <path d="M11,0C11,2.318 6.071,4.2 0,4.2C-6.071,4.2 -11,2.318 -11,0" style="fill:none;stroke:rgb(97,218,251);stroke-width:1.14px;"/>
            </g>
            <g transform="matrix(10.5691,18.3062,-18.3062,10.5691,250,250)">
                <path d="M11,0C11,2.318 6.071,4.2 0,4.2C-6.071,4.2 -11,2.318 -11,0" style="fill:none;stroke:rgb(97,218,251);stroke-width:1.14px;"/>
            </g>
            <g transform="matrix(-10.5691,18.3062,18.3062,10.5691,250,250)">
                <path d="M11,0C11,2.318 6.071,4.2 0,4.2C-6.071,4.2 -11,2.318 -11,0" style="fill:none;stroke:rgb(97,218,251);stroke-width:1.14px;"/>
            </g>
        </g>
        <g id="Godot" transform="matrix(0.471667,0,0,0.471667,8.50672,1.35712)">
            <g id="path80" transform="matrix(4.16261,0,0,-4.16261,919.241,673.152)">
                <path d="M0,0C0,0 -0.325,1.994 -0.515,1.976L-36.697,-1.515C-39.576,-1.793 -41.812,-4.089 -42.014,-6.974L-43.008,-21.221L-71,-23.218L-72.904,-10.306C-73.328,-7.434 -75.836,-5.269 -78.739,-5.269L-116.927,-5.269C-119.829,-5.269 -122.337,-7.434 -122.761,-10.306L-124.666,-23.218L-152.658,-21.221L-153.652,-6.974C-153.854,-4.088 -156.09,-1.792 -158.969,-1.514L-195.169,1.976C-195.356,1.994 -195.493,-0.002 -195.68,-0.002L-195.729,-7.832L-165.071,-12.776L-164.067,-27.15C-163.864,-30.06 -161.516,-32.413 -158.604,-32.622L-120.053,-35.372C-119.907,-35.382 -119.763,-35.388 -119.619,-35.388C-116.722,-35.388 -114.218,-33.222 -113.794,-30.35L-111.835,-17.064L-83.83,-17.064L-81.871,-30.35C-81.448,-33.221 -78.941,-35.387 -76.04,-35.387C-75.898,-35.387 -75.756,-35.382 -75.617,-35.372L-37.061,-32.622C-34.15,-32.413 -31.801,-30.06 -31.598,-27.15L-30.595,-12.776L0.05,-7.81L0,0Z" style="fill:white;fill-rule:nonzero;"/>
            </g>
            <g id="path88-5" transform="matrix(4.16261,0,0,-4.16261,784.071,718.723)">
                <path d="M0,0L-1.121,-16.063C-1.256,-17.999 -2.796,-19.54 -4.732,-19.679L-43.287,-22.43C-43.381,-22.437 -43.475,-22.44 -43.568,-22.44C-45.484,-22.44 -47.137,-21.034 -47.42,-19.11L-49.631,-4.116L-81.09,-4.116L-83.301,-19.11C-83.598,-21.128 -85.402,-22.579 -87.434,-22.43L-125.989,-19.679C-127.925,-19.54 -129.465,-17.999 -129.6,-16.063L-130.721,0L-163.268,3.138C-163.253,-0.36 -163.208,-4.192 -163.208,-4.955C-163.208,-39.329 -119.603,-55.851 -65.427,-56.041L-65.294,-56.041C-11.118,-55.851 32.472,-39.329 32.472,-4.955C32.472,-4.178 32.519,-0.362 32.535,3.138L0,0Z" style="fill:rgb(71,140,191);fill-rule:nonzero;"/>
            </g>
            <g id="path84-6" transform="matrix(4.16261,0,0,-4.16261,104.699,427.387)">
                <path d="M0,0L0,-59.041C0.108,-59.042 0.216,-59.046 0.323,-59.056L36.519,-62.546C38.415,-62.729 39.901,-64.255 40.033,-66.155L41.149,-82.133L72.723,-84.386L74.898,-69.639C75.18,-67.727 76.82,-66.31 78.754,-66.31L116.942,-66.31C118.875,-66.31 120.515,-67.727 120.797,-69.639L122.972,-84.386L154.547,-82.133L155.662,-66.155C155.795,-64.255 157.28,-62.73 159.176,-62.546L195.358,-59.056C195.465,-59.046 195.572,-59.042 195.68,-59.041L195.68,-54.33L195.695,-54.325L195.695,0L195.829,0C200.624,6.12 205.061,12.569 209.316,19.449C203.665,29.069 196.741,37.666 189.34,45.631C182.476,42.176 175.809,38.262 169.512,34.097C166.361,37.229 162.812,39.791 159.326,42.469C155.901,45.22 152.041,47.237 148.38,49.587C149.47,57.704 150.009,65.695 150.226,74.035C140.78,78.789 130.707,81.941 120.518,84.205C116.45,77.368 112.73,69.964 109.49,62.726C105.648,63.368 101.788,63.606 97.923,63.652L97.923,63.658C97.896,63.658 97.871,63.652 97.848,63.652C97.824,63.652 97.799,63.658 97.775,63.658L97.775,63.652C93.903,63.606 90.046,63.368 86.203,62.726C82.965,69.964 79.247,77.368 75.173,84.205C64.989,81.941 54.915,78.789 45.47,74.035C45.686,65.695 46.225,57.704 47.318,49.587C43.65,47.237 39.795,45.22 36.369,42.469C32.888,39.791 29.333,37.229 26.181,34.097C19.884,38.262 13.219,42.176 6.353,45.631C-1.048,37.666 -7.968,29.069 -13.621,19.449C-9.368,12.569 -4.928,6.12 -0.134,0L0,0Z" style="fill:rgb(71,140,191);fill-rule:nonzero;"/>
            </g>
            <g id="path104-7" transform="matrix(4.16261,0,0,-4.16261,421.18,527.151)">
                <path d="M0,0C0,-12.052 9.765,-21.815 21.815,-21.815C33.856,-21.815 43.623,-12.052 43.623,0C43.623,12.044 33.856,21.802 21.815,21.802C9.765,21.802 0,12.044 0,0" style="fill:white;fill-rule:nonzero;"/>
            </g>
            <g id="path108-9" transform="matrix(4.16261,0,0,-4.16261,451.746,527.191)">
                <path d="M0,0C0,-7.994 6.477,-14.473 14.471,-14.473C22.473,-14.473 28.95,-7.994 28.95,0C28.95,7.994 22.473,14.479 14.471,14.479C6.477,14.479 0,7.994 0,0" style="fill:rgb(65,64,66);fill-rule:nonzero;"/>
            </g>
        </g>
        <g id="Infront-Lines" serif:id="Infront Lines">
            <g transform="matrix(-21.1381,-2.58867e-15,2.58867e-15,-21.1381,250,250)">
                <path d="M11,0C11,2.318 6.071,4.2 0,4.2C-6.071,4.2 -11,2.318 -11,0" style="fill:none;stroke:rgb(97,218,251);stroke-width:1.14px;"/>
            </g>
            <g transform="matrix(10.5691,-18.3062,-18.3062,-10.5691,250,250)">
                <path d="M11,0C11,2.318 6.071,4.2 0,4.2C-6.071,4.2 -11,2.318 -11,0" style="fill:none;stroke:rgb(97,218,251);stroke-width:1.14px;"/>
            </g>
            <g transform="matrix(-10.5691,-18.3062,18.3062,-10.5691,250,250)">
                <path d="M11,0C11,2.318 6.071,4.2 0,4.2C-6.071,4.2 -11,2.318 -11,0" style="fill:none;stroke:rgb(97,218,251);stroke-width:1.14px;"/>
            </g>
        </g>
    </g>
</svg>
